<svg width="45" height="44" viewBox="0 0 45 44" fill="none" xmlns="http://www.w3.org/2000/svg">
<rect opacity="0.1" x="1.22907" y="0.559761" width="42.5418" height="42.5418" rx="21.2709" fill="#091E42" stroke="#0A142F" stroke-width="1.11952"/>
<g clip-path="url(#clip0_28_606)">
<path d="M23.0639 17.8633C20.521 17.8633 18.4698 19.8824 18.4698 22.3856C18.4698 24.8888 20.521 26.9078 23.0639 26.9078C25.6068 26.9078 27.6579 24.8888 27.6579 22.3856C27.6579 19.8824 25.6068 17.8633 23.0639 17.8633ZM23.0639 25.3256C21.4206 25.3256 20.0772 24.0071 20.0772 22.3856C20.0772 20.764 21.4166 19.4455 23.0639 19.4455C24.7112 19.4455 26.0506 20.764 26.0506 22.3856C26.0506 24.0071 24.7072 25.3256 23.0639 25.3256ZM28.9174 17.6784C28.9174 18.2648 28.4376 18.7332 27.8458 18.7332C27.2501 18.7332 26.7743 18.2609 26.7743 17.6784C26.7743 17.0959 27.2541 16.6236 27.8458 16.6236C28.4376 16.6236 28.9174 17.0959 28.9174 17.6784ZM31.9601 18.7489C31.8921 17.3359 31.5642 16.0843 30.5127 15.0532C29.4651 14.022 28.1937 13.6992 26.7583 13.6284C25.2789 13.5457 20.8448 13.5457 19.3655 13.6284C17.9341 13.6953 16.6626 14.018 15.6111 15.0492C14.5595 16.0804 14.2357 17.332 14.1637 18.745C14.0797 20.2012 14.0797 24.566 14.1637 26.0223C14.2317 27.4352 14.5595 28.6868 15.6111 29.718C16.6626 30.7492 17.9301 31.0719 19.3655 31.1428C20.8448 31.2254 25.2789 31.2254 26.7583 31.1428C28.1937 31.0759 29.4651 30.7531 30.5127 29.718C31.5602 28.6868 31.8881 27.4352 31.9601 26.0223C32.044 24.566 32.044 20.2051 31.9601 18.7489ZM30.0489 27.5848C29.737 28.3562 29.1333 28.9505 28.3456 29.2615C27.1661 29.722 24.3673 29.6157 23.0639 29.6157C21.7604 29.6157 18.9576 29.718 17.7821 29.2615C16.9985 28.9545 16.3947 28.3602 16.0789 27.5848C15.6111 26.4237 15.719 23.6687 15.719 22.3856C15.719 21.1025 15.6151 18.3435 16.0789 17.1864C16.3907 16.415 16.9945 15.8206 17.7821 15.5097C18.9616 15.0492 21.7604 15.1555 23.0639 15.1555C24.3673 15.1555 27.1701 15.0532 28.3456 15.5097C29.1293 15.8167 29.733 16.411 30.0489 17.1864C30.5167 18.3474 30.4087 21.1025 30.4087 22.3856C30.4087 23.6687 30.5167 26.4277 30.0489 27.5848Z" fill="#172B4D"/>
</g>
<defs>
<clipPath id="clip0_28_606">
<rect width="17.9123" height="20.1514" fill="white" transform="translate(14.1036 12.3145)"/>
</clipPath>
</defs>
</svg>
