<svg width="44" height="44" viewBox="0 0 44 44" fill="none" xmlns="http://www.w3.org/2000/svg">
<rect opacity="0.1" x="0.894356" y="0.559761" width="42.5418" height="42.5418" rx="21.2709" fill="#091E42" stroke="#0A142F" stroke-width="1.11952"/>
<path fill-rule="evenodd" clip-rule="evenodd" d="M18.247 29.1079H14.8884V19.0322H18.247V29.1079Z" fill="#172B4D"/>
<path fill-rule="evenodd" clip-rule="evenodd" d="M16.5577 16.7931H16.5386C15.5364 16.7931 14.8884 16.0464 14.8884 15.1133C14.8884 14.1604 15.5561 13.4346 16.5774 13.4346C17.5987 13.4346 18.2276 14.1604 18.247 15.1133C18.247 16.0464 17.5987 16.7931 16.5577 16.7931Z" fill="#172B4D"/>
<path fill-rule="evenodd" clip-rule="evenodd" d="M30.5616 29.1077H27.2614V23.841C27.2614 22.5181 26.7838 21.6154 25.589 21.6154C24.6772 21.6154 24.1341 22.2239 23.8956 22.8117C23.8083 23.0224 23.7869 23.3159 23.7869 23.6101V29.1079H20.4861C20.4861 29.1079 20.5296 20.1874 20.4861 19.2637H23.7869V20.658C24.2249 19.9877 25.0095 19.0322 26.7618 19.0322C28.9336 19.0322 30.5618 20.4395 30.5618 23.4633L30.5616 29.1077Z" fill="#172B4D"/>
</svg>
