<svg width="44" height="44" viewBox="0 0 44 44" fill="none" xmlns="http://www.w3.org/2000/svg">
<rect opacity="0.1" x="0.563789" y="0.559761" width="42.5418" height="42.5418" rx="21.2709" fill="#091E42" stroke="#0A142F" stroke-width="1.11952"/>
<path fill-rule="evenodd" clip-rule="evenodd" d="M21.6246 18.9495L21.6561 19.4821L21.1303 19.4169C19.2164 19.1669 17.5444 18.319 16.1247 16.895L15.4307 16.1884L15.2519 16.7102C14.8733 17.8733 15.1152 19.1016 15.9039 19.9278C16.3245 20.3843 16.2299 20.4496 15.5043 20.1778C15.2519 20.0908 15.0311 20.0256 15.01 20.0582C14.9364 20.1343 15.1888 21.1235 15.3886 21.5149C15.662 22.0584 16.2194 22.591 16.8293 22.9063L17.3446 23.1563L16.7347 23.1672C16.1458 23.1672 16.1247 23.178 16.1878 23.4063C16.3981 24.1129 17.2289 24.8629 18.1543 25.189L18.8063 25.4173L18.2384 25.7652C17.3972 26.2652 16.4087 26.5478 15.4202 26.5696C14.947 26.5804 14.5579 26.6239 14.5579 26.6565C14.5579 26.7652 15.8408 27.374 16.5874 27.6131C18.8273 28.3197 21.4878 28.0153 23.4859 26.8087C24.9055 25.95 26.3252 24.2433 26.9877 22.591C27.3452 21.7105 27.7028 20.1017 27.7028 19.3299C27.7028 18.8299 27.7343 18.7647 28.3232 18.1668C28.6702 17.8189 28.9962 17.4385 29.0593 17.3298C29.1645 17.1232 29.1539 17.1232 28.6176 17.308C27.7238 17.6341 27.5976 17.5907 28.0393 17.1015C28.3653 16.7536 28.7543 16.1232 28.7543 15.9384C28.7543 15.9058 28.5966 15.9601 28.4178 16.0579C28.2285 16.1666 27.8079 16.3297 27.4924 16.4275L26.9246 16.6123L26.4093 16.2536C26.1254 16.0579 25.7258 15.8405 25.5154 15.7753C24.9791 15.6231 24.1589 15.6449 23.6752 15.8188C22.3607 16.308 21.5299 17.5689 21.6246 18.9495Z" fill="#172B4D"/>
</svg>
