<svg width="44" height="44" viewBox="0 0 44 44" fill="none" xmlns="http://www.w3.org/2000/svg">
<rect opacity="0.1" x="0.898384" y="0.559761" width="42.5418" height="42.5418" rx="21.2709" fill="#091E42" stroke="#0A142F" stroke-width="1.11952"/>
<path d="M26.6473 28.7348H17.318C14.5192 28.7348 12.6533 26.9622 12.6533 24.3034V18.9856C12.6533 16.3268 14.5192 14.5542 17.318 14.5542H26.6473C29.4462 14.5542 31.312 16.3268 31.312 18.9856V24.3034C31.312 26.9622 29.4462 28.7348 26.6473 28.7348Z" stroke="#091E42" stroke-width="1.11952" stroke-miterlimit="10" stroke-linecap="round" stroke-linejoin="round"/>
<path d="M22.1693 19.6153L24.5016 20.9447C25.3413 21.4765 25.3413 22.2741 24.5016 22.8059L22.1693 24.1354C21.2363 24.6671 20.49 24.224 20.49 23.2491V20.5902C20.49 19.438 21.2363 19.0835 22.1693 19.6153Z" stroke="#091E42" stroke-width="1.11952" stroke-miterlimit="10" stroke-linecap="round" stroke-linejoin="round"/>
</svg>
